<svg
              viewBox="0 0 24 24"
              xmlns="http://www.w3.org/2000/svg"
              fill="white"
            >
              <title>LinkedIn</title>
              <path d="M22.23 0H1.77C.79 0 0 .77 0 1.72v20.56C0 23.23.79 24 1.77 24h20.46c.98 0 1.77-.77 1.77-1.72V1.72C24 .77 23.21 0 22.23 0zM7.12 20.45H3.56V9h3.56v11.45zM5.34 7.51c-1.14 0-2.06-.92-2.06-2.06s.92-2.06 2.06-2.06c1.14 0 2.06.92 2.06 2.06s-.92 2.06-2.06 2.06zm14.86 12.94h-3.55v-5.59c0-1.33-.03-3.03-1.85-3.03-1.85 0-2.13 1.45-2.13 2.95v5.67H9.12V9h3.41v1.56h.05c.48-.91 1.65-1.86 3.39-1.86 3.63 0 4.31 2.39 4.31 5.5v6.25z" />
            </svg>