<svg
    xmlns="http://www.w3.org/2000/svg"
    viewBox="0 0 24 24"
    fill="white"
    width="30px"
    height="30px"
  >
    <path d="M12 2C6.48 2 2 6.48 2 12c0 4.42 2.87 8.17 6.84 9.49.5.09.66-.22.66-.49v-1.71c-2.78.6-3.37-1.34-3.37-1.34-.46-1.16-1.12-1.47-1.12-1.47-.91-.62.07-.61.07-.61 1.01.07 1.54 1.05 1.54 1.05.91 1.56 2.38 1.1 2.96.84.09-.66.36-1.1.65-1.35-2.22-.25-4.56-1.11-4.56-4.94 0-1.09.39-1.98 1.02-2.67-.1-.25-.44-1.27.1-2.64 0 0 .83-.27 2.73 1.02A9.56 9.56 0 0112 6.8c.84.004 1.68.113 2.47.332 1.9-1.29 2.73-1.02 2.73-1.02.54 1.37.2 2.39.1 2.64.63.69 1.02 1.58 1.02 2.67 0 3.84-2.34 4.69-4.57 4.93.37.32.7.94.7 1.89v2.81c0 .28.16.59.67.49C19.13 20.17 22 16.42 22 12c0-5.52-4.48-10-10-10z"/>
</svg>